<?xml version="1.0" standalone="no"?>
<!DOCTYPE svg PUBLIC "-//W3C//DTD SVG 20010904//EN"
 "http://www.w3.org/TR/2001/REC-SVG-20010904/DTD/svg10.dtd">
<svg version="1.0" xmlns="http://www.w3.org/2000/svg"
 width="400.000000pt" height="400.000000pt" viewBox="0 0 400.000000 400.000000"
 preserveAspectRatio="xMidYMid meet">
<metadata>
Created by potrace 1.14, written by Peter Selinger 2001-2017
</metadata>
<g transform="translate(0.000000,400.000000) scale(0.100000,-0.100000)"
fill="#000000" stroke="none">
<path d="M0 3765 c0 -129 2 -235 5 -235 3 0 10 10 15 23 8 21 9 21 9 -5 1 -14
-4 -28 -11 -30 -6 -2 -13 -24 -15 -49 l-3 -44 35 39 c19 22 55 74 80 115 54
93 76 123 141 194 66 71 129 113 242 162 55 23 92 45 92 54 0 11 -4 11 -19 -3
-11 -10 -25 -15 -32 -10 -8 4 -10 3 -5 -4 9 -15 5 -15 -31 -2 -26 9 -27 9 -9
-5 17 -13 17 -15 4 -15 -9 0 -29 -5 -45 -12 -15 -6 -39 -12 -53 -12 -16 -1
-25 -6 -24 -17 1 -11 -7 -15 -27 -14 -23 1 -26 -1 -18 -11 8 -10 5 -15 -15
-20 -14 -3 -26 -12 -26 -18 0 -7 -18 -29 -40 -49 -22 -19 -40 -41 -40 -47 0
-6 -4 -9 -9 -5 -14 8 16 60 36 60 9 0 18 6 21 14 3 8 0 11 -6 7 -6 -3 -13 -2
-17 3 -3 6 5 8 19 5 21 -3 23 -1 18 18 -3 13 -1 19 5 15 6 -4 17 0 24 9 11 13
9 14 -14 9 -33 -9 -35 7 -6 36 13 13 31 20 52 18 56 -4 64 0 63 24 -1 14 6 24
19 28 11 3 -78 6 -197 8 l-218 2 0 -236z m190 -36 c0 -6 -4 -7 -10 -4 -5 3
-10 11 -10 16 0 6 5 7 10 4 6 -3 10 -11 10 -16z m-128 -181 c-8 -36 -39 -71
-45 -54 -4 9 3 16 16 20 12 3 18 8 14 12 -3 4 -2 15 4 25 13 26 18 24 11 -3z"/>
<path d="M455 3989 c-11 -17 1 -21 15 -4 8 9 8 15 2 15 -6 0 -14 -5 -17 -11z"/>
<path d="M3418 3993 c7 -3 16 -2 19 1 4 3 -2 6 -13 5 -11 0 -14 -3 -6 -6z"/>
<path d="M2895 3950 c3 -5 13 -10 21 -10 8 0 12 5 9 10 -3 6 -13 10 -21 10 -8
0 -12 -4 -9 -10z"/>
<path d="M2973 3943 c15 -2 39 -2 55 0 15 2 2 4 -28 4 -30 0 -43 -2 -27 -4z"/>
<path d="M1540 3639 c-7 -11 -10 -23 -7 -25 2 -2 9 7 15 21 14 30 7 33 -8 4z"/>
<path d="M1512 3575 c-17 -37 -14 -45 4 -12 9 16 14 31 11 33 -2 2 -9 -7 -15
-21z"/>
<path d="M1471 3479 c-12 -28 -20 -53 -18 -55 2 -3 14 19 26 47 12 29 20 54
17 56 -2 2 -13 -19 -25 -48z"/>
<path d="M35 3285 c-22 -19 -36 -37 -32 -41 3 -4 13 -1 22 6 21 18 19 7 -5
-20 -13 -15 -20 -37 -20 -64 1 -40 2 -39 29 34 15 42 33 86 40 98 16 30 11 28
-34 -13z"/>
<path d="M1406 3305 c-9 -26 -7 -32 5 -12 6 10 9 21 6 23 -2 3 -7 -2 -11 -11z"/>
<path d="M696 3243 c-6 -14 -5 -15 5 -6 7 7 10 15 7 18 -3 3 -9 -2 -12 -12z"/>
<path d="M1386 3245 c-9 -26 -7 -32 5 -12 6 10 9 21 6 23 -2 3 -7 -2 -11 -11z"/>
<path d="M1598 3188 c-115 -144 -256 -380 -313 -523 -7 -18 -9 -17 -16 10 -5
20 -7 3 -7 -55 0 -76 -12 -141 -42 -235 -5 -16 -12 -41 -14 -55 -3 -14 -13
-54 -21 -90 -9 -36 -23 -110 -32 -165 -13 -75 -19 -94 -24 -75 -13 46 -9 232
7 332 9 55 14 102 11 104 -3 3 -13 -49 -23 -115 -10 -66 -22 -115 -26 -108 -4
7 -13 98 -20 203 -7 104 -14 180 -16 170 -2 -10 -13 -28 -24 -40 -33 -33 -129
-186 -156 -246 -14 -30 -37 -89 -53 -130 l-28 -75 -1 81 c0 103 33 302 71 419
15 49 27 91 25 93 -2 2 -13 -25 -25 -60 -33 -97 -41 -103 -41 -30 0 40 -4 61
-10 57 -5 -3 -10 -2 -10 4 0 5 5 13 11 16 15 10 1 87 -19 104 -13 10 -14 15
-4 18 6 3 12 12 12 21 -1 15 -2 15 -11 -1 -6 -9 -14 -15 -20 -12 -5 4 -9 -9
-9 -27 -1 -28 -2 -30 -11 -15 -10 17 -12 16 -28 -5 -25 -32 -106 -221 -126
-293 -10 -33 -23 -73 -30 -90 -13 -29 -14 -29 -15 30 0 33 -1 135 -3 228 -1
92 1 167 6 167 4 0 7 9 7 20 0 11 -4 20 -8 20 -5 0 -7 14 -4 30 2 17 10 30 18
30 8 0 11 6 7 15 -3 9 7 52 22 96 15 44 25 82 22 85 -2 2 -21 -39 -42 -93
-111 -292 -146 -445 -154 -693 l-6 -175 -17 60 c-34 121 -41 194 -35 369 3 94
10 203 16 241 6 39 18 114 26 167 9 53 18 105 21 115 3 10 -2 7 -10 -7 -8 -14
-15 -34 -16 -46 0 -11 -7 -29 -15 -40 -15 -19 -15 -19 -9 1 l7 20 -16 -20 c-9
-11 -17 -25 -17 -32 0 -6 -3 -13 -8 -15 -15 -6 -72 -106 -133 -231 -34 -70
-63 -126 -65 -125 -6 6 16 191 26 223 5 17 11 41 14 55 2 14 12 54 21 90 10
36 17 80 17 98 -1 23 2 31 11 25 8 -4 8 -1 -1 10 -8 9 -11 26 -7 39 5 18 4 20
-4 8 -10 -13 -12 -13 -21 0 -7 11 -9 8 -6 -15 2 -16 1 -24 -1 -17 -7 19 -18
14 -34 -15 -8 -16 -20 -32 -26 -36 -7 -4 -13 -12 -13 -17 0 -6 -9 -20 -19 -32
-11 -13 -40 -47 -65 -77 l-46 -55 0 -315 c0 -181 4 -331 10 -351 7 -24 7 -53
-1 -90 -5 -30 -9 -109 -7 -175 l3 -119 60 75 c33 42 87 119 120 172 33 53 63
97 66 97 4 0 3 -19 -2 -42 -10 -52 -11 -293 -2 -328 5 -19 9 -9 19 46 6 38 19
97 29 130 l18 59 18 -140 c10 -77 27 -167 37 -200 l19 -60 7 50 c12 88 35 205
44 220 18 34 281 -413 311 -530 7 -27 15 -58 18 -68 10 -37 18 -3 23 96 l5
102 53 -161 c53 -165 66 -218 77 -338 6 -56 9 -66 17 -51 18 31 47 177 48 234
0 66 5 62 59 -45 41 -80 53 -138 63 -289 3 -39 4 -38 30 40 15 44 34 125 43
180 27 175 24 169 54 95 42 -104 81 -164 96 -148 2 2 -5 46 -15 98 -24 112
-40 420 -22 420 6 0 13 -8 16 -18 8 -25 54 -67 63 -59 3 4 -5 20 -19 35 -14
15 -33 41 -41 57 -12 24 -26 34 -64 43 -69 18 -144 68 -202 135 -60 69 -77 98
-91 163 -29 129 0 290 65 357 20 21 40 37 44 37 5 0 12 -28 15 -62 6 -48 4
-65 -7 -73 -19 -14 -40 -55 -28 -55 6 0 15 9 21 20 17 32 27 16 34 -52 13
-129 29 -228 38 -228 4 0 8 11 8 24 0 31 37 229 51 274 19 58 42 42 93 -61 25
-51 46 -99 46 -106 0 -7 -11 -27 -25 -43 -21 -25 -25 -37 -19 -62 8 -38 31
-74 56 -87 14 -7 17 -16 12 -37 -12 -47 -24 -55 -76 -49 -49 6 -66 -6 -25 -17
38 -10 72 -7 95 10 13 9 24 14 26 13 1 -2 10 -38 20 -79 11 -41 22 -79 27 -84
4 -5 13 11 19 35 16 59 111 358 123 386 15 34 27 18 27 -35 0 -45 25 -211 33
-219 3 -2 10 18 17 44 23 90 43 148 73 213 16 36 44 99 62 140 18 41 54 119
80 173 25 54 45 101 42 103 -2 2 -14 -19 -27 -47 -14 -28 -33 -57 -43 -64 -10
-7 -20 -25 -21 -39 -5 -46 -19 -49 -30 -6 -3 14 -3 19 0 13 3 -7 10 -13 15
-13 6 0 7 4 4 10 -3 5 -1 19 5 30 6 12 10 31 7 43 -3 20 -4 20 -15 -7 -7 -16
-15 -26 -18 -23 -3 3 -1 14 5 25 6 12 10 31 10 44 -1 20 -2 21 -6 3 -9 -37
-43 -42 -43 -7 0 9 -7 30 -15 46 -9 16 -13 37 -10 47 4 10 -2 25 -15 37 -18
17 -20 29 -17 98 l3 79 3 -85 c2 -68 5 -78 11 -51 4 19 4 61 0 94 -8 57 -20
89 -20 54 0 -16 -30 -25 -30 -9 0 4 -7 15 -14 25 -11 14 -18 16 -41 7 -23 -9
-26 -14 -21 -36 5 -17 3 -23 -4 -19 -10 6 -15 -13 -12 -50 2 -16 0 -17 -8 -5
-9 13 -10 13 -10 0 -1 -12 -3 -11 -11 3 -6 10 -12 55 -14 101 -3 91 -15 120
-57 138 -15 7 -32 22 -38 33 -10 19 -9 11 5 -30 6 -17 4 -17 -14 4 -12 13 -21
18 -21 12 0 -6 -5 -11 -10 -11 -11 0 20 68 54 115 11 16 21 35 22 41 1 7 32
54 69 106 38 51 65 82 61 68 -54 -194 -79 -317 -66 -325 5 -3 12 11 15 32 16
107 48 248 69 307 13 36 23 66 21 66 -1 0 -18 -19 -37 -42z m-235 -418 c-9
-22 -18 -38 -20 -36 -5 5 24 76 31 76 2 0 -3 -18 -11 -40z m52 30 c4 -6 1 -9
-6 -8 -7 2 -16 -8 -20 -22 -6 -21 -7 -22 -8 -4 -1 11 4 25 11 32 15 15 15 15
23 2z m262 -232 c-3 -8 -6 -5 -6 6 -1 11 2 17 5 13 3 -3 4 -12 1 -19z m-388
-304 c32 -37 41 -67 41 -142 l0 -67 -35 62 c-20 34 -45 65 -56 68 -22 7 -21
21 1 80 12 32 21 31 49 -1z m473 -165 c-19 -38 -38 -67 -42 -64 -13 8 -30 -41
-17 -54 8 -8 8 -11 -1 -11 -7 0 -13 5 -13 10 -1 6 -2 15 -3 22 0 6 -7 13 -15
16 -10 3 -11 -2 -6 -19 5 -19 4 -21 -4 -9 -15 21 -14 78 2 96 34 41 93 98 100
96 4 -1 7 3 7 10 0 6 6 4 13 -6 11 -15 8 -28 -21 -87z m-131 -106 c-9 -15 -10
-14 -7 7 3 14 6 39 7 55 2 27 3 26 6 -7 2 -21 -1 -46 -6 -55z m-94 -48 c-13
-27 -14 -27 -20 -6 -3 14 1 24 11 30 24 13 26 7 9 -24z m-183 -72 c4 -27 10
-57 13 -68 5 -18 4 -18 -20 3 -26 25 -38 61 -30 93 10 36 31 20 37 -28z m306
-13 l-8 -35 -1 31 c-1 17 2 34 6 37 11 12 12 3 3 -33z"/>
<path d="M1356 3154 c-9 -26 -16 -55 -15 -63 0 -9 9 11 19 44 23 70 19 87 -4
19z"/>
<path d="M441 3134 c0 -11 3 -14 6 -6 3 7 2 16 -1 19 -3 4 -6 -2 -5 -13z"/>
<path d="M2491 2934 c15 -57 20 -64 13 -19 -3 22 -10 44 -14 49 -5 5 -5 -8 1
-30z"/>
<path d="M2707 2930 c-7 -26 -4 -34 11 -29 4 2 5 15 2 29 l-6 25 -7 -25z"/>
<path d="M2333 2903 c-10 -16 -20 -30 -23 -33 -22 -21 -131 -223 -180 -333
-43 -98 -47 -136 -5 -48 19 40 35 77 35 81 0 15 37 39 72 45 l38 7 -5 -48 -5
-49 14 55 c8 30 22 106 32 169 10 62 23 119 30 125 13 13 28 56 20 56 -3 0
-13 -12 -23 -27z m-40 -165 c-15 -82 -24 -95 -72 -104 l-33 -7 22 44 c30 59
82 139 90 139 4 0 1 -33 -7 -72z"/>
<path d="M3540 2890 c0 -5 5 -10 10 -10 6 0 10 5 10 10 0 6 -4 10 -10 10 -5 0
-10 -4 -10 -10z"/>
<path d="M1292 2870 c0 -14 2 -19 5 -12 2 6 2 18 0 25 -3 6 -5 1 -5 -13z"/>
<path d="M2511 2860 c0 -8 4 -24 9 -35 l9 -20 0 20 c0 11 -4 27 -9 35 -9 13
-10 13 -9 0z"/>
<path d="M1282 2820 c0 -14 2 -19 5 -12 2 6 2 18 0 25 -3 6 -5 1 -5 -13z"/>
<path d="M2760 2809 c0 -4 7 -26 16 -50 39 -110 72 -327 76 -501 1 -64 6 -104
11 -99 12 12 -8 313 -28 416 -17 89 -50 202 -65 225 -5 8 -10 12 -10 9z"/>
<path d="M2531 2790 c0 -8 4 -24 9 -35 l9 -20 0 20 c0 11 -4 27 -9 35 -9 13
-10 13 -9 0z"/>
<path d="M922 2765 c-17 -37 -14 -45 4 -12 9 16 14 31 11 33 -2 2 -9 -7 -15
-21z"/>
<path d="M1082 2760 c0 -14 2 -19 5 -12 2 6 2 18 0 25 -3 6 -5 1 -5 -13z"/>
<path d="M1272 2750 c0 -14 2 -19 5 -12 2 6 2 18 0 25 -3 6 -5 1 -5 -13z"/>
<path d="M2680 2735 c0 -8 8 -11 20 -8 11 3 20 7 20 8 0 1 -9 5 -20 8 -12 3
-20 0 -20 -8z"/>
<path d="M2537 2723 c-11 -10 -8 -20 8 -27 10 -4 15 1 15 14 0 20 -11 26 -23
13z"/>
<path d="M1073 2680 c0 -25 2 -35 4 -22 2 12 2 32 0 45 -2 12 -4 2 -4 -23z"/>
<path d="M2421 2699 c-14 -5 -31 -7 -38 -5 -7 3 -13 1 -13 -3 0 -5 -3 -17 -6
-26 -5 -13 -2 -15 22 -10 56 13 124 37 129 46 8 12 -63 11 -94 -2z"/>
<path d="M3145 2680 c-3 -5 -1 -10 4 -10 6 0 11 5 11 10 0 6 -2 10 -4 10 -3 0
-8 -4 -11 -10z"/>
<path d="M2565 2655 c12 -71 27 -140 32 -145 8 -8 -9 89 -23 133 -9 27 -13 32
-9 12z"/>
<path d="M3143 2605 c0 -33 2 -45 4 -27 2 18 2 45 0 60 -2 15 -4 0 -4 -33z"/>
<path d="M3196 2640 c4 -8 28 -43 51 -76 24 -34 43 -64 43 -67 0 -4 11 -23 25
-43 43 -63 27 -16 -20 63 -38 62 -126 171 -99 123z"/>
<path d="M2000 2581 c-6 -12 -8 -26 -5 -31 3 -6 2 -10 -4 -10 -6 0 -17 -13
-26 -30 -20 -38 -19 -54 1 -17 9 16 21 26 29 23 9 -3 14 8 17 37 6 50 3 56
-12 28z"/>
<path d="M2990 2536 c0 -8 5 -18 10 -21 6 -3 10 3 10 14 0 12 -4 21 -10 21 -5
0 -10 -6 -10 -14z"/>
<path d="M1162 2510 c0 -14 2 -19 5 -12 2 6 2 18 0 25 -3 6 -5 1 -5 -13z"/>
<path d="M3151 2459 c1 -30 5 -67 9 -84 4 -17 5 5 2 50 -6 93 -13 114 -11 34z"/>
<path d="M2600 2473 c0 -22 2 -25 10 -13 13 20 13 40 0 40 -5 0 -10 -12 -10
-27z"/>
<path d="M2976 2485 c-9 -26 -7 -32 5 -12 6 10 9 21 6 23 -2 3 -7 -2 -11 -11z"/>
<path d="M1986 2429 c-7 -69 -8 -325 -2 -318 5 4 15 379 11 379 -1 0 -5 -28
-9 -61z"/>
<path d="M3011 2469 c-1 -15 6 -40 15 -55 l15 -29 -7 35 c-3 19 -10 44 -15 55
-7 18 -8 17 -8 -6z"/>
<path d="M1151 2464 c0 -11 3 -14 6 -6 3 7 2 16 -1 19 -3 4 -6 -2 -5 -13z"/>
<path d="M3432 2450 c0 -14 2 -19 5 -12 2 6 2 18 0 25 -3 6 -5 1 -5 -13z"/>
<path d="M2962 2430 c0 -14 2 -19 5 -12 2 6 2 18 0 25 -3 6 -5 1 -5 -13z"/>
<path d="M1926 2423 c-6 -14 -5 -15 5 -6 7 7 10 15 7 18 -3 3 -9 -2 -12 -12z"/>
<path d="M3001 2404 c0 -11 3 -14 6 -6 3 7 2 16 -1 19 -3 4 -6 -2 -5 -13z"/>
<path d="M3432 2400 c0 -14 2 -19 5 -12 2 6 2 18 0 25 -3 6 -5 1 -5 -13z"/>
<path d="M2916 2309 c-20 -50 -35 -94 -32 -97 3 -2 10 8 16 24 6 16 22 58 36
92 14 35 23 66 21 68 -3 3 -21 -36 -41 -87z"/>
<path d="M2992 2350 c0 -19 2 -27 5 -17 2 9 2 25 0 35 -3 9 -5 1 -5 -18z"/>
<path d="M3040 2375 c0 -5 5 -17 10 -25 5 -8 10 -10 10 -5 0 6 -5 17 -10 25
-5 8 -10 11 -10 5z"/>
<path d="M1821 2344 c0 -11 3 -14 6 -6 3 7 2 16 -1 19 -3 4 -6 -2 -5 -13z"/>
<path d="M3381 2325 c0 -6 7 -26 15 -45 l14 -35 -6 35 c-5 31 -25 69 -23 45z"/>
<path d="M2460 2305 c-117 -20 -359 -89 -348 -100 2 -2 76 14 164 36 112 28
196 43 284 49 69 5 127 10 130 10 3 0 -2 5 -10 10 -20 13 -128 11 -220 -5z"/>
<path d="M3172 2310 c0 -8 4 -26 8 -40 6 -20 8 -21 8 -5 0 11 -3 29 -8 40 -5
12 -8 14 -8 5z"/>
<path d="M2036 2285 c-9 -26 -7 -32 5 -12 6 10 9 21 6 23 -2 3 -7 -2 -11 -11z"/>
<path d="M2982 2260 c0 -25 3 -67 8 -95 7 -48 7 -49 8 -10 0 22 -3 65 -8 95
l-7 55 -1 -45z"/>
<path d="M3431 2268 c0 -21 -5 -38 -11 -38 -5 0 -10 -7 -10 -15 0 -24 19 -17
26 9 3 13 4 37 1 52 -3 25 -4 24 -6 -8z"/>
<path d="M3090 2263 c0 -6 8 -17 18 -24 16 -13 16 -13 2 6 -8 11 -16 22 -17
24 -2 2 -3 0 -3 -6z"/>
<path d="M3192 2235 c0 -5 6 -26 13 -45 7 -19 14 -28 14 -20 0 8 -6 29 -14 45
-7 17 -13 26 -13 20z"/>
<path d="M2070 2190 c-9 -6 -10 -10 -3 -10 6 0 15 5 18 10 8 12 4 12 -15 0z"/>
<path d="M3140 2192 c0 -5 10 -17 22 -28 l21 -19 -18 28 c-18 28 -25 33 -25
19z"/>
<path d="M3220 2132 c0 -16 -4 -21 -12 -16 -7 4 -3 -4 9 -17 29 -30 37 -21 19
22 -13 29 -15 30 -16 11z"/>
<path d="M3001 2084 c0 -11 3 -14 6 -6 3 7 2 16 -1 19 -3 4 -6 -2 -5 -13z"/>
<path d="M3021 2004 c-1 -18 30 -116 35 -111 3 3 -4 31 -15 63 -11 33 -20 54
-20 48z"/>
<path d="M3082 1770 c0 -14 2 -19 5 -12 2 6 2 18 0 25 -3 6 -5 1 -5 -13z"/>
<path d="M3093 1660 c0 -41 2 -58 4 -37 2 20 2 54 0 75 -2 20 -4 3 -4 -38z"/>
<path d="M3072 1543 c-6 -20 -7 -32 -2 -27 10 10 25 64 18 64 -3 0 -10 -16
-16 -37z"/>
<path d="M3009 1423 c-13 -16 -12 -17 4 -4 16 13 21 21 13 21 -2 0 -10 -8 -17
-17z"/>
<path d="M2969 1373 c-13 -16 -12 -17 4 -4 16 13 21 21 13 21 -2 0 -10 -8 -17
-17z"/>
<path d="M2817 1374 c-4 -4 -7 -15 -7 -23 0 -9 -11 -29 -25 -44 l-26 -27 23 0
c13 0 30 -5 38 -11 13 -8 12 -12 -5 -24 -11 -8 -29 -21 -40 -30 l-20 -15 20 7
c11 4 34 15 50 24 30 18 30 18 89 -19 l60 -36 -31 -8 c-34 -9 -73 -50 -73 -77
0 -25 28 -59 71 -86 62 -40 89 -90 105 -196 16 -108 24 -136 76 -247 l38 -84
0 -139 c0 -122 -2 -139 -17 -147 -10 -5 -74 -8 -143 -5 -141 5 -172 0 -169
-25 3 -37 -2 -52 -18 -52 -15 0 -16 2 -3 10 17 11 -73 16 -215 11 -252 -9
-322 -5 -327 17 -4 16 5 17 106 16 100 -2 113 0 127 18 23 29 78 38 112 19 15
-8 27 -19 27 -23 0 -19 141 -29 147 -10 5 13 -22 17 -89 13 -33 -2 -38 1 -51
31 -21 49 -36 57 -128 69 -46 6 -106 17 -133 25 -26 8 -62 14 -80 14 -17 1
-68 9 -114 18 -77 17 -85 21 -125 65 -28 32 -60 55 -97 70 -80 33 -85 37 -103
87 l-16 45 6 -44 c3 -25 2 -42 -3 -39 -109 51 -301 118 -411 143 -83 18 -228
35 -307 35 -51 0 -57 2 -51 18 17 41 16 45 -4 14 -15 -23 -28 -32 -48 -32 -16
0 -44 -3 -64 -6 -32 -5 -38 -12 -49 -45 -7 -21 -15 -39 -17 -39 -2 0 -21 12
-42 26 -22 14 -65 32 -98 40 -32 8 -65 18 -73 21 -24 10 -194 2 -208 -9 -7 -6
-35 -8 -64 -6 -29 3 -65 1 -81 -5 -21 -7 -48 -5 -102 8 -66 15 -82 16 -152 3
l-78 -14 -3 -337 -2 -337 52 6 c29 3 66 5 82 4 16 0 32 4 36 9 3 6 42 15 85
20 44 5 123 16 175 25 96 15 210 19 210 7 0 -3 -4 -21 -9 -39 -8 -25 -7 -32 2
-29 15 4 132 353 142 422 9 63 30 103 58 114 55 21 337 72 425 78 81 5 109 2
165 -15 63 -19 269 -130 507 -273 115 -69 214 -119 235 -119 18 0 19 12 3 28
-19 19 -4 23 21 6 13 -9 47 -68 76 -130 30 -63 59 -114 64 -114 16 0 13 17 -4
24 -27 10 -17 27 13 20 34 -8 53 -24 28 -24 -9 0 -15 -4 -12 -8 6 -10 27 -9
69 3 17 4 39 3 54 -4 19 -9 29 -9 39 0 8 6 21 9 29 5 11 -4 17 2 21 23 8 37
47 57 69 35 8 -9 15 -21 14 -27 0 -9 -2 -8 -6 1 -7 17 -33 15 -33 -2 0 -8 4
-17 9 -20 9 -6 17 -6 146 -7 39 0 72 -4 73 -9 2 -6 68 -10 157 -10 150 0 153
0 159 23 3 12 11 113 17 224 12 224 11 234 -47 338 -34 63 -64 162 -64 214 0
38 -28 141 -44 161 -6 8 -37 37 -70 64 -55 46 -57 50 -40 63 11 8 29 12 42 10
15 -3 22 1 22 11 0 11 -8 13 -36 9 -31 -5 -34 -4 -23 10 39 46 122 34 181 -28
35 -37 36 -40 32 -101 -3 -59 -3 -60 7 -23 5 22 16 62 24 89 19 61 19 65 -3
59 -10 -2 -29 6 -42 18 -14 12 -36 27 -50 33 -14 6 -46 24 -72 39 -26 16 -53
25 -59 21 -7 -4 -9 -3 -5 4 4 7 -12 18 -43 29 -27 9 -47 22 -44 27 4 5 -1 7
-10 3 -20 -7 -23 14 -6 44 11 21 9 45 -4 33z"/>
<path d="M2905 1319 c39 -23 99 -59 135 -79 36 -20 82 -47 103 -59 l37 -23 -1
34 c-1 18 -3 25 -6 15 -6 -24 -25 -17 -130 49 -47 30 -90 54 -96 54 -5 0 -7 7
-3 15 4 12 0 14 -19 9 -18 -4 -27 -1 -31 10 -3 9 -18 16 -32 16 -22 0 -14 -8
43 -41z"/>
<path d="M3460 1326 c-27 -8 -77 -11 -125 -8 -77 4 -82 3 -110 -23 l-30 -27
42 23 c35 19 52 21 110 17 68 -6 190 12 177 25 -9 8 -6 8 -64 -7z"/>
<path d="M3620 1281 c0 -5 7 -15 17 -22 15 -13 15 -12 4 9 -12 23 -21 28 -21
13z"/>
<path d="M3185 1249 c-4 -6 -5 -12 -2 -15 2 -3 7 2 10 11 7 17 1 20 -8 4z"/>
<path d="M2695 1179 c-22 -10 -29 -16 -15 -13 28 7 80 33 65 33 -5 0 -28 -9
-50 -20z"/>
<path d="M3730 1173 c0 -6 8 -17 18 -24 16 -13 16 -13 2 6 -8 11 -16 22 -17
24 -2 2 -3 0 -3 -6z"/>
<path d="M2585 1140 c-13 -6 -15 -9 -5 -9 8 0 22 4 30 9 18 12 2 12 -25 0z"/>
<path d="M2538 1123 c7 -3 16 -2 19 1 4 3 -2 6 -13 5 -11 0 -14 -3 -6 -6z"/>
<path d="M2498 1113 c7 -3 16 -2 19 1 4 3 -2 6 -13 5 -11 0 -14 -3 -6 -6z"/>
<path d="M2300 1089 c-52 -5 -148 -8 -212 -6 -102 1 -119 -1 -137 -17 -51 -46
-109 -214 -116 -336 -4 -67 -3 -70 6 -30 5 25 19 86 30 136 21 93 64 200 90
220 9 7 90 13 214 17 110 3 211 10 225 16 28 11 30 11 -100 0z"/>
<path d="M3897 774 c-4 -4 -7 -14 -7 -23 0 -11 3 -12 11 -4 6 6 10 16 7 23 -2
6 -7 8 -11 4z"/>
<path d="M3870 696 c0 -8 10 -18 23 -22 12 -4 39 -18 59 -30 41 -26 48 -28 48
-15 0 5 -25 21 -55 37 -30 16 -55 32 -55 37 0 4 -4 7 -10 7 -5 0 -10 -6 -10
-14z"/>
<path d="M1842 630 c0 -14 2 -19 5 -12 2 6 2 18 0 25 -3 6 -5 1 -5 -13z"/>
<path d="M3717 478 c-30 -41 -64 -97 -51 -83 16 16 84 115 79 115 -2 0 -15
-15 -28 -32z"/>
<path d="M1203 493 c15 -2 37 -2 50 0 12 2 0 4 -28 4 -27 0 -38 -2 -22 -4z"/>
<path d="M1288 493 c7 -3 16 -2 19 1 4 3 -2 6 -13 5 -11 0 -14 -3 -6 -6z"/>
<path d="M1148 483 c7 -3 16 -2 19 1 4 3 -2 6 -13 5 -11 0 -14 -3 -6 -6z"/>
<path d="M1090 470 c-18 -12 -2 -12 25 0 13 6 15 9 5 9 -8 0 -22 -4 -30 -9z"/>
<path d="M1045 450 c-3 -6 1 -7 9 -4 18 7 21 14 7 14 -6 0 -13 -4 -16 -10z"/>
<path d="M1509 429 c35 -16 66 -28 68 -26 4 5 -111 57 -123 57 -5 -1 20 -14
55 -31z"/>
<path d="M3631 324 c0 -11 3 -14 6 -6 3 7 2 16 -1 19 -3 4 -6 -2 -5 -13z"/>
<path d="M3621 270 c-2 -14 -6 -80 -9 -148 l-7 -122 198 0 198 0 -3 103 -3
102 -135 -3 c-114 -2 -138 -5 -155 -21 -11 -10 -25 -17 -32 -14 -6 2 -14 -1
-18 -6 -3 -7 0 -8 9 -5 17 6 23 -20 8 -30 -22 -13 -36 17 -42 91 -4 43 -8 67
-9 53z m189 -118 c0 -13 -12 -22 -22 -16 -10 6 -1 24 13 24 5 0 9 -4 9 -8z
m-140 -51 c0 -5 -7 -11 -15 -15 -15 -5 -20 5 -8 17 9 10 23 9 23 -2z m20 -25
c0 -2 -7 -6 -15 -10 -8 -3 -15 -1 -15 4 0 6 7 10 15 10 8 0 15 -2 15 -4z"/>
<path d="M1750 256 c0 -2 8 -10 18 -17 15 -13 16 -12 3 4 -13 16 -21 21 -21
13z"/>
<path d="M1801 186 c12 -20 23 -36 25 -36 7 0 -25 58 -36 65 -5 3 -1 -10 11
-29z"/>
<path d="M2104 122 c7 -11 106 -75 106 -68 0 3 -19 17 -42 33 -65 44 -72 47
-64 35z"/>
<path d="M1871 40 c0 -8 4 -22 9 -30 12 -18 12 -2 0 25 -6 13 -9 15 -9 5z"/>
<path d="M499 26 c-2 -2 -22 -7 -43 -10 -61 -10 -56 -16 12 -16 64 0 92 6 92
21 0 9 -53 13 -61 5z"/>
</g>
</svg>
